<svg xmlns="http://www.w3.org/2000/svg" xmlns:xlink="http://www.w3.org/1999/xlink" viewBox="0 0 262.775 167.937" height="634.722" width="993.165" xmlns:v="https://vecta.io/nano"><style><![CDATA[.B{fill-rule:evenodd}.C{fill:#ffbe62}.D{fill:#092532}]]></style><path d="M70.424 55.782c-1.69-.015.612 1.633 15.675-6.003 9.02-4.572 4.08-10.537 5.6-11.047 1.76-.59 1.726 4.076 2.515 3.568 1.754-1.13 2.51-1.4 4.23 1.13 3.105 4.293-1.508 5.712-3.206 5.686-.694.528-9.054 8.833-15.65 12.735-3.867 2.287-8.956 2.302-8.956 2.302z" class="C"/><path d="M15.93 73.792c2.084-.5 6.43-3.692 7.877-5.212.02-.35-.772-.697.428-6.415 1.057-5.037 3.456-9.052 3.456-9.052L30.398 71.6l23.436.453 6.186-10.335s10.855 2.94 10.837 2.65l-.17-8.756c-15.685-4.728-8.82-13.47-17.853-18.365-23.17-8.62-42.96 15.526-36.905 36.544z" fill="#3b6978"/><use xlink:href="#B" fill="#ddd"/><path d="M42.594 39.21c-1.053 0-2.062-.293-2.806-.814s-1.162-1.228-1.162-1.964v-5.556h7.937v5.556c0 .737-.418 1.443-1.162 1.964s-1.754.814-2.806.814z" fill="#f7b250" class="B"/><path d="M30.02 39.09c7.285 26.553-.51 25.22-5.476 54.988l41.726.2s-1.998-12.078-5.986-18.73c-5.605-9.35.838-9.4.037-18.01-.522-5.603-4.317-7.876-4.317-7.876.16-4.417-.107-7.206-1.424-11.32-1.266-1.05-2.872-1.72-3.988-1.853 1.626 2.402 2.542 6.084 2.133 10.814-5.724 1.196-11.53 1.52-17.254.846-.582-4.35-1.105-6.404-2.337-10.628-1.347.403-2.075.75-3.114 1.56z" class="D"/><g class="C"><path d="M23.485 68.6l2.88 7.86c1.497 3.985 5.07 9.958 5.07 9.958l-5.228 3.54s-9.51-14.425-10.02-16.26c.97-.985 5.814-3.437 7.298-5.098z"/><path d="M42.77 12.19c-2.87.024-5.935.865-8.015 3.25-.825.985-1.36 2.308-1.255 3.657l.01 2.517c-.177-.067-.362-.102-.548-.102-.956 0-1.732.885-1.732 1.977s.775 1.977 1.732 1.977c.177 0 .353-.03.52-.092-.235.946-.145 1.786-.016 2.615.18 1.11.714 2.245 1.48 3.033 2.327 2.41 5.628 3.145 8.688 2.964 2.714-.21 5.418-1.035 7.23-3.483.535-.67.8-1.694.992-2.46.696-3.51.02-6.472 0-9.713-.18-1.11-.533-2.36-1.3-3.15-2.08-2.184-5.03-2.975-7.79-2.995z" class="B"/></g><path d="M49.375 27.718c0 1.54-.864 2.965-2.267 3.735s-3.13.77-4.534 0-2.267-2.194-2.267-3.735h4.534z" fill="#fff" class="B"/><ellipse transform="matrix(.370418 0 0 .193646 -75.982301 4.211584)" cx="317.5" cy="100" rx="2.5" ry="5" class="B"/><ellipse ry="5" rx="2.5" cy="100" cx="317.5" transform="matrix(.370418 0 0 .193646 -68.986419 4.211584)" class="B"/><path d="M42.913 9.314c-8.44.102-10.658 5.677-11.12 7.908-1.926.753-3.17 2.454-3.17 4.333 0 2.46 1.996 4.5 4.74 4.712.002-.296.12-.593.122-.89-.17.06-.344.09-.52.09-.956 0-1.732-.885-1.732-1.977s.775-1.978 1.732-1.978c.186 0 .37.035.548.102 3.9.592 9.253.74 12.693-3.466 1.517 1.97 4.08 2.992 5.84 2.91.204-1.214.844-11.868-9.13-11.748z" fill="#602d00" class="B"/><rect rx="3.372" transform="matrix(.264583 0 0 .264583 -46.406596 -6.919904)" y="220.458" x="360.625" height="8.936" width="21.925" fill="#a5a5a5" class="B"/><path d="M36.858 7.606c-3.135 1.495-5.066 4.257-5.066 7.246v2.37h20.264v-2.37c0-2.99-1.93-5.752-5.066-7.246a12.01 12.01 0 0 0-10.132 0z" class="B D"/><path d="M42.422 11.064c-3.02.957-4.88 2.726-4.88 4.64v1.518h19.527v-1.518c0-1.915-1.86-3.684-4.882-4.64a16.96 16.96 0 0 0-9.763 0z" fill="#3b6978" class="B"/><path d="M46.18 11.79c-2.245.845-3.63 2.405-3.63 4.095v1.34h14.515v-1.34c0-1.69-1.383-3.25-3.63-4.095s-5.012-.845-7.258 0z" class="B D"/><path d="M102.913 45.663L92.988 78.51h42.99c2.076.494 4.94-2.18 7.514-7.015s4.465-11.095 4.962-16.423-.475-8.914-2.55-9.407z" fill="#adadad" class="B"/><path d="M102.913 45.664c2.076.493 3.05 4.08 2.55 9.407s-2.39 11.588-4.963 16.423-5.438 7.51-7.514 7.016l4.963-16.423z" fill="#9e9e9e" class="B"/><path d="M108.4 76.665v11.168h28.532c.06-9.323.872-15.577-4.764-25.34H113.61z" fill="#cecece"/><path d="M113.61 62.493l-5.2 14.17v11.168h9.48c0-11.468.738-16.65-4.28-25.34z" fill="#b9b9b9"/><g class="B"><path d="M160.607 57.826h34.35V87.9h-34.35z" fill="#a37125"/><path d="M165.547 57.826h3.1V87.9h-3.1z" fill="#2e4143"/><rect ry="12.906" rx="11.457" transform="matrix(.298045 0 0 .264583 -18.089971 -4.017)" y="339.67" x="60.695" height="42.768" width="699.148" fill="#6d5724"/><rect ry="14.031" rx="14.816" transform="matrix(.250571 0 0 .264583 -10.519122 -4.163696)" y="618.701" x="46.023" height="31.756" width="830.756" fill="#cecece"/><rect ry="2.128" rx="1.889" transform="matrix(.298045 0 0 .264583 -18.089971 -4.017)" y="381.061" x="95.809" height="256.145" width="639.734" fill="#4e3e18"/><path d="M187.21 32.68l6.714 3.48c.743.385 1.04 1.275.667 1.995l-1.872 3.61c-.373.72-1.272 1-2.015.605L184 38.9c-.743-.385-1.04-1.275-.667-1.995l1.872-3.61c.373-.72 1.272-1 2.015-.605z" fill="#000059"/><path d="M185.194 33.284l9.396 4.87-.542 1.046-9.396-4.87z" fill="#939393"/></g><path d="M220.217 164.008l7.204-.01 6.588-6.37.57 6.807 1.7-.092.102-12.105c0-.4-2.043-2.365-2.043-2.365l-10.275 9.942c-5.078-.088-5.076 2.092-3.843 4.193z"/><g class="C"><path d="M224.96 111.508l3.992 40.357c-.257 1.313-5.334 8.002-5.334 8.002s4.8.05 6.06-.66 4.632-5.123 4.97-6.425-.854-3.2-.575-5.304l3.265-25.4c0-2.128-.84-9.652-.84-9.652zm-5.224-63.782s-3.273 4.973-6.052 4.202-13.1-5.085-15.817-8.4-3.708-4.925-3.78-6.464-1.802-1.826-2.065-.732-.236 2.254.172 3.218c1.722 6.497-5.7-.653-6.705.55-.884 3.06 4.018 4.035 6.147 4.05.795 0 2.307.76 3.875 2.294s10.803 10.735 14.3 11.823 6.7.72 7.462.33 5.963-3.9 5.963-3.9z"/><path d="M238.124 10.386c2.87.024 5.935.865 8.015 3.25.825.985 1.36 2.308 1.255 3.657l-.01 2.517c.177-.067.362-.102.548-.102.956 0 1.732.885 1.732 1.977s-.775 1.977-1.732 1.977c-.177 0-.353-.03-.52-.092.197.872.24 1.743.016 2.615-.18 1.11-.714 2.245-1.48 3.033-2.327 2.41-5.628 3.145-8.688 2.964-2.714-.21-5.315-.847-7.128-3.296-.535-.67-1.094-1.997-1.276-2.763-.89-4.373-.094-6.594 0-9.713.18-1.11.714-2.245 1.48-3.033 2.08-2.184 5.03-2.975 7.79-2.995z" class="B"/></g><path d="M231.52 25.912c0 1.54.864 2.965 2.267 3.735s3.13.77 4.534 0 2.267-2.194 2.267-3.735h-4.534z" fill="#fff" class="B"/><ellipse transform="matrix(-.370418 0 0 .193646 356.87622 2.406515)" cx="317.5" cy="100" rx="2.5" ry="5" class="B"/><ellipse ry="5" rx="2.5" cy="100" cx="317.5" transform="matrix(-.370418 0 0 .193646 349.88034 2.406515)" class="B"/><path d="M238.267 8.573l-.81.023C220.715 8.585 227.4 32.43 227.283 44.2l22.505.172c.91-10.8 5.164-36.002-11.52-35.79zm-2.648 7.445l.22 3.01 2.698-.023.434-2.15.1 2.145 4.917.248.32-1.14-.01 1.173 3.085.532c.177-.067.362-.102.548-.102.956 0 1.732.885 1.732 1.977s-.775 1.977-1.732 1.977c-.177 0-.353-.03-.52-.09.17.89.122 1.755.016 2.615-.18 1.11-.714 2.245-1.48 3.033-2.327 2.41-5.628 3.144-8.688 2.964-2.714-.21-5.315-.847-7.128-3.295-.535-.67-1.094-1.997-1.276-2.763-.597-2.93-.436-4.892-.236-6.807l3.088-.226.292-1.616.036 1.58 2.928-.02z" fill="#482200"/><path d="M231.198 35.348c-7.022 1.158-8.224 6.812-12.13 12.685l3.75 7.168 3.984-1.97 6.068-15.906z" fill="#80c174"/><path d="M248.864 164.57l7.555-.066 2.646-3.683.372 3.536 1.746-.007s-.646-11.32-.892-12.088-1.157-1.23-1.157-1.23c.422 3.584-1.177 6.673-3.18 7.727-3.882 2.04-9.705.698-7.09 5.81z"/><path d="M243.107 112.08s12.448 35.8 11.792 39.737-2.42 8.12-2.42 8.12 5.47 2.28 6.567-1.045-1.53-33.342-2.275-35.97-3.687-10.983-3.687-10.983z" class="C"/><path d="M243.217 35.327L231.5 36.42c-4.523.912-7.173 8.49-6.4 12.857-.36 4.206 4.263 8.78 3.515 11.225-.717 1.865-6.966 15.247-8.533 25.2-.926 5.885-1.176 23.997.295 24.768-.646 2.44 32.226 4.94 36.286 1.17 3.523-12.318-.104-30.968-2.664-41.006-1.265-2.916-4.116-10.16-4.116-10.16l.124-9.616-.003-.3 2.088 2.198c2.12-2.574 3.812-4.308 7.177-5.164 0 0-.274-2.82-3.79-6.262-3.15-3.084-7.926-5.456-11.12-5.66-.673-.23-1.14-.352-1.14-.352z" fill="#98cd8e"/><use xlink:href="#B" x="195.19" y="-0.951" fill="#ddd"/><path d="M233.78 31.5l.08 3.155c0 1.534 1.777 2.778 3.97 2.778s3.97-1.244 3.97-2.778l.04-2.968c-2.7.372-5.577.56-8.06-.188z" fill="#f7b250" class="B"/><path d="M252.443 52.265c1.842-2.527 4.017-3.85 6.33-4.568 0 0 4.818 6.61 3.878 13.573s-2.545 11.188-6.285 14.674-4.854 4.838-4.854 5.84-.848 4.794-1.893 5.034-5.142 2.79-4.856 1.45 2.535-1.722 1.384-2.6-.807-.543-1.623.374c-.906 1.018-1.013 1.878-1.727.396-.222-.46.122-4.193 3.317-6.995 5.244-5.315 12.845-11.775 10.815-19.763-.583-2.055-4.488-7.414-4.488-7.414z" class="C"/><path d="M214.33 14.753l3.955 4.215-.923-4.215h.726a2.11 2.11 0 0 0 2.108-2.108V2.107c0-1.16-.948-2.108-2.108-2.108h-16.86a2.11 2.11 0 0 0-2.108 2.108v10.538a2.11 2.11 0 0 0 2.108 2.108z" fill="#77bcb8"/><path d="M209.658 12.302a5.14 5.14 0 0 1-5.137-5.137 5.14 5.14 0 0 1 5.137-5.137 5.14 5.14 0 0 1 5.137 5.137 5.14 5.14 0 0 1-5.137 5.137zm-1.798-5.65a.77.77 0 1 0 0-1.541.77.77 0 1 0 0 1.541zm3.596 0a.77.77 0 1 0 0-1.541.77.77 0 1 0 0 1.541zm1.1 1.54h-5.815a3.08 3.08 0 0 0 5.815 0z" fill="#fff"/><path d="M70.373 14.753l-3.955 4.215.923-4.215h-.726a2.11 2.11 0 0 1-2.108-2.108V2.107c0-1.16.948-2.108 2.108-2.108h16.86a2.11 2.11 0 0 1 2.108 2.108v10.538a2.11 2.11 0 0 1-2.108 2.108z" fill="#77bcb8"/><path d="M69.91 7.523l1.027-1.027 2.568 2.568 5.65-5.65 1.027 1.027-6.678 6.678z" fill="#fff"/><defs ><path id="B" d="M39.788 34.985c-.995.073-3.3.657-4.152 1.587-.013 2.436 1.66 4.84 4.57 6.136 1.05-.622 2.137-3.023 2.205-4.3l.575.015c-.05 1.217 1.804 3.34 2.693 4.152 2.578-.7 4.445-3.8 3.158-6.532-.572-.508-1.833-1.165-2.534-1.12z"/></defs></svg>