<?xml version="1.0" encoding="UTF-8"?>
<svg width="605" height="350.01" version="1.1" viewBox="0 0 160.07 92.603" xmlns="http://www.w3.org/2000/svg" xmlns:cc="http://creativecommons.org/ns#" xmlns:dc="http://purl.org/dc/elements/1.1/" xmlns:rdf="http://www.w3.org/1999/02/22-rdf-syntax-ns#">
<metadata>
<rdf:RDF>
<cc:Work rdf:about="">
<dc:format>image/svg+xml</dc:format>
<dc:type rdf:resource="http://purl.org/dc/dcmitype/StillImage"/>
<dc:title/>
</cc:Work>
</rdf:RDF>
</metadata>
<path transform="matrix(.077259 0 0 .077093 8.3696 -1.7943)" d="m1596.8 1170.3 3.8872 34.057 120.53-10.041-41.914-18.113-0.7189-14.2z" fill="#8e8e8e" stroke-width="1.0522"/>
<path transform="matrix(.01309 -.075979 .076142 .013062 46.602 195.5)" d="m1596.8 1170.3 3.8872 34.057 120.53-10.041-41.914-18.113-0.7189-14.2z" fill="#8e8e8e" stroke-width="1.0522"/>
<path transform="matrix(.067914 -.0017163 .002221 .087512 19.826 -10.892)" d="m1345.6 1171.8 370.95-14.039 263.32 31.988 12.074-80.334-286.37-33.284-266.92 22.869z" fill="#2e2e2e" stroke-width="1.0522"/>
<path transform="matrix(.070073 0 0 .068969 20.783 7.6307)" d="m1557.5 813.61 86.773-58.6" fill="none" stroke="#10375c" stroke-width="11.418"/>
<path transform="matrix(.067917 0 0 .067771 23.287 9.4327)" d="m1589.2 796.59s16.505-23.405 22.137-34.604c5.6316-11.199 9.972-15.449 13.036-12.466 2.7832 2.7097-12.002 22.681-7.8985 24.522 3.2149 1.4426 35.038-20.289 35.038-20.289s7.0243 22.771 7.9722 33.933c2.5684 30.243-29.132 59.393-29.132 59.393z" fill="#f1d49d" stroke-width="1.0522"/>
<path transform="matrix(.067917 0 0 .067771 23.287 9.4327)" d="m1236 1111.2s331.75-263 364.76-273.21c33.007-10.212 94.183 326.48 94.183 326.48l-105.27 10.291-34.321-168.05s-159.59 151.17-201.85 171.21c-42.264 20.04-117.49-66.723-117.49-66.723z" fill="#494949" stroke-width="1.0522"/>
<path transform="matrix(.11574 0 0 .080738 -.2223 28.341)" d="m949.82 315.56s-11.21 8.2848-10.14-18.67c0.65629-16.533 10.954-11.12 10.954-11.12l-0.0197-35.368 75.989-1.3425 0.6451 107.01c-2.8257 18.356-20.48 24.355-34.807 22.027l0.32296 20.091-41.583-0.45912c-0.81444-30.42-1.5826-58.371-1.3609-82.168z" fill="#f1d49d" stroke-width="1.0522"/>
<path transform="matrix(.11574 0 0 .080738 -.2223 28.341)" d="m1023.2 363.17" fill="none" stroke-width="1.0522"/>
<path transform="matrix(.067917 0 0 .067771 22.479 9.4207)" d="m1277.7 592.04c-2.0624-33.335-5.0968-58.872 8.4365-70.113s29.933 10.246 52.678-0.24616c46.68-18.384 68.574-30.47 90.325 9.4442 6.9594 13.188-20.535 12.729-0.015 31.009 9.7408 8.6773-6.2312 14.507-12.423 17.821-6.1921 3.3139-48.697 15.441-91.318 1.0983-16.081-4.309-24.819 86.375-35.141 47.851-5.7225-17.774-8.4524-1.6456-10.118-17.146z" fill="#262626" stroke-width="1.0522"/>
<circle transform="matrix(.084082 0 0 .083901 1.2601 -.56334)" cx="1348.6" cy="621.92" r="4.8425" fill="#474747" fill-rule="evenodd" stroke-width="3.1501"/>
<circle transform="matrix(.084082 0 0 .083901 4.5768 -.56334)" cx="1348.6" cy="621.92" r="4.8425" fill="#474747" fill-rule="evenodd" stroke-width="3.1501"/>
<path transform="matrix(.051359 .0065542 -.0068258 .051277 49.65 11.159)" d="m1390.2 684.83a14.765 14.765 0 0 1-7.3824 12.787 14.765 14.765 0 0 1-14.765 0 14.765 14.765 0 0 1-7.3823-12.787h14.765z" fill="#fff" fill-rule="evenodd" stroke-width="5.1125"/>
<path transform="matrix(.067917 0 0 .067771 22.479 9.4207)" d="m1381.9 659.48 11.678 1.9712-5.951-22.364" fill="none" stroke="#ebc882" stroke-width="3.8998"/>
<path transform="matrix(.052771 0 0 .052649 42.533 18.905)" d="m1225.3 1253.3s-34.89-442.6 52.652-466.08 116.48 1.2556 116.48 1.2556l117.94 170.34 170.43-117.1 55.775 70.69s-216.36 170.13-242.2 165.86c-25.84-4.2641-59.354-51.856-59.354-51.856l-2.1768 65.226z" fill="#007676" stroke-width="1.0522"/>
<g transform="translate(.00025157 .0018049)" fill="none" stroke="#325c87">
<path transform="matrix(.25173 0 0 .25119 -2.4528 -23.846)" d="m215 365h210" stroke-linecap="round" stroke-width="10.522"/>
<path transform="matrix(.25173 0 0 .25119 -90.565 -82.041)" d="m670 460 1e-5 1e-5" stroke-linecap="round" stroke-width="10.522"/>
<circle transform="matrix(.3867 0 0 .38588 -75.189 -29.774)" cx="305" cy="135" r="5" stroke-width="3.4247"/>
<circle transform="matrix(.25173 0 0 .25119 7.9948 -32.26)" cx="305" cy="135" r="5" stroke-width="3.1566"/>
<circle transform="matrix(.25173 0 0 .25119 -66.475 -27.318)" cx="305" cy="135" r="5" stroke-width="3.1566"/>
<circle transform="matrix(.3867 0 0 .38588 -12.141 -35.534)" cx="305" cy="135" r="5" stroke-width="3.4247"/>
<circle transform="matrix(.3867 0 0 .38588 -107.8 28.015)" cx="305" cy="135" r="5" stroke-width="3.4247"/>
<circle transform="matrix(.25173 0 0 .25119 -68.36 14.586)" cx="305" cy="135" r="5" stroke-width="3.1566"/>
<path transform="matrix(-.20141 -.15101 .15068 -.20097 177.2 132.83)" d="m308.54 138.54a5 5 0 0 1-5.449 1.0839 5 5 0 0 1-3.0866-4.6194" stroke-width="1.0522"/>
<path transform="matrix(-.35214 -.26403 .26346 -.3514 209.06 187.04)" d="m308.54 138.54a5 5 0 0 1-5.449 1.0839 5 5 0 0 1-3.0866-4.6194" stroke-width=".60178"/>
<path transform="matrix(-.2708 -.20304 .2026 -.27023 191.9 157.77)" d="m308.54 138.54a5 5 0 0 1-5.449 1.0839 5 5 0 0 1-3.0866-4.6194" stroke-width=".78253"/>
</g>
<g transform="translate(-29.105 -30.956)" stroke="#092532">
<path transform="matrix(.25173 0 0 .25119 -7.3317 6.691)" d="m200 460h380" fill="none" stroke-linecap="round" stroke-width="10.522"/>
<path transform="matrix(.25173 0 0 .25119 -13.625 6.691)" d="m620 460h20" fill="none" stroke-linecap="round" stroke-width="10.522"/>
<path transform="matrix(.25173 0 0 .25119 -121.87 6.691)" d="m620 460h20" fill="none" stroke-linecap="round" stroke-width="10.522"/>
<path transform="matrix(.25173 0 0 .25119 -17.401 6.691)" d="m670 460 1e-5 1e-5" fill="none" stroke-linecap="round" stroke-width="10.522"/>
<path transform="matrix(.25173 0 0 .25119 -138.23 6.691)" d="m670 460 1e-5 1e-5" fill="none" stroke-linecap="round" stroke-width="10.522"/>
<g transform="matrix(.95142 0 0 .94938 -11.359 6.691)" stroke-width="2.7839">
<g fill="none" stroke="#092532" stroke-linecap="round" stroke-width="10.522">
<path transform="matrix(.26458 0 0 .26458 1.3229 1.6916e-6)" d="m370 460 1e-5 -30"/>
<path transform="matrix(.26458 0 0 .26458 17.198 1.6916e-6)" d="m370 460 1e-5 -30"/>
</g>
</g>
<path transform="matrix(.13373 0 0 .13613 53.707 33.173)" d="m220 202.27c-9.2816 2e-3 -17.726 8.4468-17.727 17.729v210c2e-3 9.2809 8.4456 17.724 17.727 17.727h360c9.2816-2e-3 17.726-8.4468 17.727-17.729v-210c-9.3e-4 -9.2817-8.445-17.726-17.727-17.729z" fill="none" stroke-width="19.609"/>
<path transform="matrix(0 .064909 -.066533 0 77.842 74.939)" d="m220 202.27c-9.2816 2e-3 -17.726 8.4468-17.727 17.729v210c2e-3 9.2809 8.4456 17.724 17.727 17.727h360c9.2816-2e-3 17.726-8.4468 17.727-17.729v-210c-9.3e-4 -9.2817-8.445-17.726-17.727-17.729z" fill="none" stroke-width="40.261"/>
<g transform="matrix(.95142 0 0 .86557 10.519 13.935)" fill="none">
<path transform="scale(.26458)" d="m90 190 20 30" stroke-width="5.5097"/>
<path transform="scale(.26458)" d="m90 220 20-30" stroke-width="5.5097"/>
<path transform="matrix(.19844 0 0 .19844 6.6146 12.568)" d="m80 210h40" stroke-width="7.3463"/>
</g>
<g transform="matrix(.63428 0 0 .58241 71.124 7.8213)" fill="none">
<path transform="scale(.26458)" d="m90 190 20 30" stroke-width="4.9359"/>
<path transform="scale(.26458)" d="m90 220 20-30" stroke-width="4.9359"/>
<path transform="matrix(.19844 0 0 .19844 6.6146 12.568)" d="m80 210h40" stroke-width="6.5812"/>
</g>
<g transform="matrix(.79285 0 0 .70811 130.91 19.346)" fill="none">
<path transform="scale(.26458)" d="m90 190 20 30" stroke-width="6.673"/>
<path transform="scale(.26458)" d="m90 220 20-30" stroke-width="6.673"/>
<path transform="matrix(.19844 0 0 .19844 6.6146 12.568)" d="m80 210h40" stroke-width="8.8973"/>
</g>
<g transform="matrix(.63428 0 0 .58241 15.167 63.125)" fill="none">
<path transform="scale(.26458)" d="m90 190 20 30" stroke-width="4.9359"/>
<path transform="scale(.26458)" d="m90 220 20-30" stroke-width="4.9359"/>
<path transform="matrix(.19844 0 0 .19844 6.6146 12.568)" d="m80 210h40" stroke-width="6.5812"/>
</g>
</g>
<path transform="matrix(.25173 0 0 .25119 -38.954 -37.659)" d="m245.21 263.32c-11.014 2e-3 -20.241 9.2332-20.242 20.248v79.752h10v-79.752c5e-4 -4.9498 5.2948-10.246 10.244-10.248h99.793v-10h-99.793zm319.83 170v30.852c-5e-4 4.9498-5.2948 10.244-10.244 10.246h-244.79v10.002h244.79c11.014-2e-3 20.241-9.2331 20.242-20.248v-30.852z" color="#000000" color-rendering="auto" dominant-baseline="auto" fill="#2c5282" fill-rule="evenodd" image-rendering="auto" shape-rendering="auto" solid-color="#000000" stop-color="#000000" stroke-width="1.0522" style="font-feature-settings:normal;font-variant-alternates:normal;font-variant-caps:normal;font-variant-east-asian:normal;font-variant-ligatures:normal;font-variant-numeric:normal;font-variant-position:normal;font-variation-settings:normal;inline-size:0;isolation:auto;mix-blend-mode:normal;shape-margin:0;shape-padding:0;text-decoration-color:#000000;text-decoration-line:none;text-decoration-style:solid;text-indent:0;text-orientation:mixed;text-transform:none;white-space:normal"/>
<path transform="matrix(.25173 0 0 .25119 -38.359 -37.844)" d="m622.17 441.15-17.405-21.194" fill="none" stroke="#006969" stroke-linecap="round" stroke-width="1.0522px"/>
</svg>
